<svg viewBox="0 0 120 122" xmlns="http://www.w3.org/2000/svg" fill="none" role="img" aria-label="The Travellers">
  <defs>
    <clipPath id="tg-globe"><circle cx="60" cy="52" r="40"/></clipPath>
  </defs>
  <!-- globe -->
  <g stroke="#B0892F" stroke-width="1.4">
    <circle cx="60" cy="52" r="40"/>
    <g clip-path="url(#tg-globe)" stroke-width="0.9" opacity="0.92">
      <line x1="60" y1="12" x2="60" y2="92"/>
      <ellipse cx="60" cy="52" rx="13" ry="40"/>
      <ellipse cx="60" cy="52" rx="26" ry="40"/>
      <line x1="20" y1="52" x2="100" y2="52"/>
      <ellipse cx="60" cy="52" rx="40" ry="13"/>
      <ellipse cx="60" cy="52" rx="40" ry="26"/>
    </g>
  </g>
  <!-- shield -->
  <path d="M60 32 L80 39 L80 60 Q80 79 60 89 Q40 79 40 60 L40 39 Z"
        fill="#FBFAF7" stroke="#B0892F" stroke-width="1.7" stroke-linejoin="round"/>
  <g stroke="#B0892F" stroke-width="1.15" stroke-linecap="round">
    <path d="M48 49 L60 44 L72 49"/>
    <path d="M48 58 L60 53 L72 58"/>
    <path d="M48 67 L60 62 L72 67"/>
  </g>
  <!-- banner -->
  <path d="M20 98 Q60 110 100 98 L95 109 Q60 120 25 109 Z" fill="#B0892F" opacity="0.9"/>
  <path d="M20 98 L13 92 L24 98 Z M100 98 L107 92 L96 98 Z" fill="#B0892F" opacity="0.9"/>
</svg>
