<svg xmlns="http://www.w3.org/2000/svg" viewBox="0 0 120 120" width="120" height="120">
  <defs>
    <linearGradient id="g" x1="0" y1="0" x2="0" y2="1">
      <stop offset="0" stop-color="#1a3a6e"/>
      <stop offset="1" stop-color="#0d2240"/>
    </linearGradient>
  </defs>
  <!-- Crest shield -->
  <path d="M60 6 L106 18 V58 C106 86 86 104 60 114 C34 104 14 86 14 58 V18 Z"
        fill="url(#g)" stroke="#c8a24b" stroke-width="3"/>
  <path d="M60 14 L98 24 V57 C98 80 82 95 60 104 C38 95 22 80 22 57 V24 Z"
        fill="none" stroke="#c8a24b" stroke-width="1" opacity="0.55"/>
  <!-- Compass star (Travellers motif) -->
  <g fill="#c8a24b">
    <polygon points="60,28 65,55 60,52 55,55"/>
    <polygon points="60,92 55,65 60,68 65,65"/>
    <polygon points="28,60 55,55 52,60 55,65"/>
    <polygon points="92,60 65,65 68,60 65,55"/>
    <polygon points="60,55 63,57 60,60 57,57" fill="#d8bd78"/>
  </g>
  <!-- Backgammon triangles (points) base -->
  <g fill="#c8a24b" opacity="0.9">
    <polygon points="40,96 46,82 52,96"/>
    <polygon points="54,96 60,82 66,96"/>
    <polygon points="68,96 74,82 80,96"/>
  </g>
  <circle cx="60" cy="60" r="3.4" fill="#d8bd78"/>
</svg>
